<svg width="50" height="50" xmlns="http://www.w3.org/2000/svg">
 <!-- Created with Method Draw - http://github.com/duopixel/Method-Draw/ -->

 <g>
  <title>Layer 1</title>
  <g stroke="null" id="svg_6">
   <path stroke="null" fill="#f1e7cd" id="svg_5" d="m24.215695,44.741378c-0.789192,0 -1.578384,0 -2.309117,0c-0.789192,0 -1.198402,-0.429637 -1.31532,-1.258221c-0.146147,-1.258221 -0.409211,-2.424378 -0.526128,-3.682599c-0.058459,-0.491013 -0.204605,-0.705831 -0.672274,-0.889961c-1.256861,-0.767208 -2.250658,-0.613766 -3.302914,0.491013c-0.526128,0.491013 -1.198402,0.982026 -1.841447,1.380975c-0.526128,0.429637 -0.935338,0.429637 -1.373778,-0.061377c-1.256861,-1.319598 -2.513722,-2.639196 -3.682895,-3.866729c-0.526128,-0.55239 -0.526128,-1.043403 -0.058459,-1.657169c0.730733,-0.889961 1.373778,-1.933364 2.046053,-2.823326c0.263064,-0.429637 0.409211,-0.705831 0.058459,-1.043403c-0.146147,-0.153442 -0.204605,-0.429637 -0.263064,-0.613766c-0.146147,-1.380975 -1.110714,-1.595793 -2.104511,-1.657169c-0.84765,-0.061377 -1.636842,-0.214818 -2.572181,-0.429637c-0.584587,-0.061377 -0.935338,-0.429637 -0.935338,-1.166156c0,-1.718546 0,-3.590534 0,-5.339768c0,-0.613766 0.204605,-0.982026 0.84765,-1.166156c1.256861,-0.153442 2.572181,-0.429637 3.770583,-0.613766c0.204605,-0.061377 0.526128,-0.214818 0.672274,-0.491013c0.263064,-0.55239 0.526128,-1.166156 0.672274,-1.718546c0.058459,-0.153442 0,-0.491013 -0.058459,-0.613766c-0.759962,-1.012715 -1.432237,-2.056118 -2.221429,-2.946079c-0.526128,-0.613766 -0.584587,-1.166156 0,-1.718546c1.256861,-1.319598 2.367575,-2.639196 3.624436,-3.805352c0.584587,-0.613766 1.198402,-0.55239 1.841447,0c0.84765,0.767208 1.782989,1.442351 2.689098,2.148183c0.204605,0.153442 0.584587,0.153442 0.84765,0.061377c1.578384,-0.214818 2.046053,-1.380975 2.104511,-2.915391c0,-0.767208 0.204605,-1.534416 0.409211,-2.363001c0.146147,-0.705831 0.526128,-0.982026 1.198402,-0.982026c1.636842,0 3.361372,0 4.998215,0c0.584587,0 0.935338,0.276195 1.110714,0.889961c0.146147,1.319598 0.467669,2.485754 0.526128,3.805352c0.058459,0.55239 0.263064,0.767208 0.730733,0.982026c1.256861,0.828585 2.250658,0.55239 3.244455,-0.55239c0.526128,-0.55239 1.198402,-0.982026 1.841447,-1.442351c0.526128,-0.429637 0.935338,-0.491013 1.373778,0.061377c1.256861,1.319598 2.513722,2.700572 3.682895,3.958794c0.467669,0.491013 0.467669,0.982026 0.058459,1.534416c-0.672274,0.889961 -1.373778,1.933364 -2.046053,2.823326c-0.263064,0.429637 -0.467669,0.767208 -0.146147,1.258221c0.058459,0.061377 0.146147,0.214818 0.146147,0.429637c0.146147,1.534416 1.198402,1.718546 2.367575,1.871988c0.789192,0.061377 1.578384,0.214818 2.367575,0.429637c0.672274,0.061377 0.935338,0.491013 0.935338,1.166156c0,1.718546 0,3.529157 0,5.247703c0,0.705831 -0.204605,1.043403 -0.935338,1.166156c-1.256861,0.153442 -2.513722,0.429637 -3.682895,0.613766c-0.263064,0.061377 -0.584587,0.276195 -0.730733,0.55239c-0.935338,1.380975 -0.672274,2.485754 0.467669,3.682599c0.467669,0.491013 0.789192,1.043403 1.256861,1.595793c0.467669,0.55239 0.526128,0.982026 0,1.534416c-1.256861,1.380975 -2.572181,2.700572 -3.770583,3.958794c-0.526128,0.55239 -1.110714,0.55239 -1.636842,0c-0.789192,-0.767208 -1.782989,-1.380975 -2.572181,-2.148183c-0.409211,-0.276195 -0.672274,-0.276195 -1.110714,-0.214818c-1.578384,0.429637 -1.987594,1.442351 -1.987594,2.976767c0,0.767208 -0.204605,1.534416 -0.409211,2.270936c-0.146147,0.705831 -0.526128,1.043403 -1.256861,1.043403c-0.789192,0.245507 -1.578384,0.245507 -2.367575,0.245507zm0,-13.134602c3.302914,0.061377 6.342764,-2.700572 6.342764,-6.567301s-3.03985,-6.597989 -6.284305,-6.597989c-3.507519,0 -6.401222,2.915391 -6.342764,6.567301c0.029229,3.743975 2.922933,6.597989 6.284305,6.597989z"/>
  </g>
  <polyline stroke-linecap="round" id="svg_7" points="-196.5,206.5 -195.5,205.5 -194.5,205.5 " fill-opacity="0" stroke-width="1.5" stroke="#000" fill="none"/>
 </g>
</svg>