<svg width="480" height="480" xmlns="http://www.w3.org/2000/svg">
 <title>shield-purple</title>

 <g>
  <title>Layer 1</title>
  <path d="m240.126431,12.99998l1.64362,0l7.08002,3.58716q7.08001,3.5871 9.35568,4.70038q2.27573,1.11324 15.48764,7.23608q13.21185,6.1229 13.65433,6.18471q0.4425,0.06186 7.01675,2.90686q6.57437,2.84497 10.11438,4.20556q3.53998,1.36064 10.24078,3.71085q6.70069,2.35017 8.47071,2.9687q1.77002,0.61845 4.42505,1.48434q2.65496,0.86584 6.82714,2.10278q4.17212,1.23694 10.62006,2.96868q6.44782,1.73171 12.51642,3.09234q6.06866,1.36062 7.83862,1.73172q1.76996,0.37109 11.25226,2.10284q9.48212,1.73169 11.88425,2.10278q2.40219,0.37106 11.75784,1.85539q9.35586,1.48433 9.48218,1.48433q0.12646,0 9.10299,1.73172q8.97644,1.73176 9.03968,1.79358l0.06323,0.06185l-0.3793,18.43046q-0.37934,18.43046 -1.89649,47.62231q-1.51709,29.19186 -2.40216,40.81915q-0.88495,11.62726 -2.02283,19.9148q-1.13781,8.2875 -2.6549,15.7092q-1.51731,7.42164 -3.2872,14.96698q-1.77011,7.54538 -3.1608,13.23527q-1.39075,5.68996 -3.28717,12.24574q-1.89642,6.55582 -2.2757,7.91651q-0.37927,1.36059 -1.13781,3.46341q-0.75864,2.10281 -1.77005,5.19516q-1.01145,3.09234 -3.16074,8.90597q-2.14935,5.81363 -3.54001,9.2771q-1.39068,3.46344 -3.4136,8.28751q-2.02283,4.82406 -5.1836,11.62726q-3.16073,6.80319 -3.79284,7.91641q-0.63215,1.11325 -4.61469,8.10196q-3.98251,6.98877 -4.80426,8.28759q-0.82181,1.29877 -3.91928,6.55579q-3.09757,5.25699 -4.04575,6.67947q-0.94821,1.42255 -2.90786,4.45301q-1.95963,3.03052 -3.16074,4.70038q-1.20108,1.66989 -2.78149,3.95825q-1.58033,2.28833 -3.03427,4.2056q-1.45395,1.91723 -2.27573,3.21606q-0.82181,1.2988 -2.40216,3.33975q-1.58032,2.04096 -3.0343,4.08191q-1.45392,2.04099 -3.16074,4.20557q-1.70676,2.16467 -2.90781,3.71081q-1.20105,1.54624 -5.12042,5.87555q-3.91931,4.32922 -9.22931,9.89554q-5.31,5.56619 -9.35577,9.52441q-4.04566,3.95819 -5.37323,5.00965q-1.32745,1.05142 -6.19501,5.31881q-4.86752,4.26752 -5.94217,5.19519q-1.07461,0.92771 -5.31002,4.57669q-4.23536,3.64899 -5.56287,4.70038q-1.32748,1.05142 -3.03424,2.47388q-1.70685,1.42248 -4.74115,3.89636q-3.0343,2.47391 -4.61469,3.64902q-1.58026,1.17514 -3.03424,2.10281q-1.45398,0.92768 -5.31006,3.21607q-3.85601,2.28833 -5.05713,3.09231q-1.20111,0.80405 -2.71826,1.66989q-1.51715,0.86585 -3.1607,1.97907q-1.64359,1.11328 -2.4021,1.60806q-0.75858,0.49478 -3.28723,1.73172q-2.52857,1.23694 -6.06861,2.84497q-3.53995,1.60807 -4.93072,2.10279l-1.39069,0.49481l-1.51721,-0.37107q-1.51709,-0.37112 -3.28708,-1.23696q-1.77005,-0.86585 -5.94214,-2.96869q-4.17218,-2.10279 -4.80441,-2.59757q-0.63208,-0.49478 -3.22388,-2.1647q-2.59177,-1.66977 -3.91928,-2.47382q-1.32755,-0.80398 -5.18356,-3.09234q-3.85611,-2.28836 -5.31006,-3.2161q-1.45392,-0.92767 -3.0343,-2.10275q-1.58036,-1.17514 -3.60321,-2.78317q-2.02286,-1.60801 -5.37323,-4.39112q-3.35041,-2.78317 -5.81577,-4.82409q-2.46533,-2.04102 -7.20645,-6.1847q-4.74109,-4.1438 -6.0686,-5.19516q-1.3275,-1.05145 -5.81572,-4.94778q-4.48824,-3.89639 -4.99395,-4.39117q-0.50572,-0.49479 -4.48825,-4.39115q-3.9825,-3.89633 -5.56289,-5.56625q-1.58036,-1.66983 -6.95359,-7.42166q-5.37323,-5.75177 -6.44787,-7.05057q-1.07465,-1.2988 -3.16074,-3.8345q-2.08606,-2.53577 -3.28714,-4.08191q-1.20108,-1.54615 -2.40214,-3.21613q-1.20108,-1.66986 -2.5286,-3.46338q-1.32747,-1.79361 -2.40213,-3.21606q-1.07468,-1.42249 -1.83322,-2.53574q-0.75856,-1.11325 -2.08611,-2.90683q-1.32748,-1.79355 -2.27569,-3.21606q-0.94823,-1.42249 -2.5286,-3.71079q-1.58035,-2.28836 -2.40214,-3.58715q-0.82179,-1.29877 -2.65502,-4.08191q-1.83322,-2.78312 -2.40216,-3.83457q-0.56892,-1.05136 -3.16072,-5.31885q-2.59176,-4.26739 -3.41357,-5.56619q-0.82179,-1.29883 -4.10895,-7.11243q-3.28717,-5.81366 -4.93076,-8.78228q-1.64355,-2.96869 -2.90785,-5.56632q-1.26429,-2.59756 -3.54001,-7.79269q-2.27571,-5.19519 -2.27571,-5.31888q0,-0.12372 -2.27574,-5.68994q-2.2757,-5.56629 -3.54001,-8.78226q-1.26431,-3.21609 -3.54001,-9.77185q-2.27571,-6.55582 -4.55145,-13.97748q-2.27576,-7.42166 -5.05716,-18.05938q-2.78145,-10.6377 -3.91928,-15.83289q-1.13788,-5.19515 -3.16074,-15.0907q-2.02287,-9.89552 -2.40216,-12.9879q-0.37927,-3.09236 -1.6436,-18.92522q-1.26425,-15.83291 -1.64352,-23.87301q-0.37932,-8.04013 -0.88503,-17.06983q-0.50573,-9.02966 -1.39074,-29.56296q-0.88501,-20.53324 -0.88501,-29.06816l0,-8.53495l0.8218,-0.43293q0.82181,-0.4329 4.48824,-1.05135q3.66644,-0.6185 10.11433,-1.60805q6.44788,-0.98954 19.5965,-3.21605q13.14862,-2.22648 18.83792,-3.21603q5.6893,-0.98955 15.04506,-3.09241q9.35576,-2.10278 16.18292,-3.95817q6.82718,-1.85543 11.75789,-3.46343q4.93074,-1.60804 7.71219,-2.47391q2.7814,-0.8659 5.31001,-1.73171q2.52858,-0.86586 10.11432,-3.71085q7.58574,-2.84495 14.2233,-5.7518q6.63751,-2.90679 7.08,-2.96864q0.44246,-0.06186 6.38466,-2.78313q5.94215,-2.72131 10.74646,-4.94775q4.80432,-2.22651 9.48222,-4.45302q4.67789,-2.22651 11.63147,-5.81362l6.95365,-3.58715l1.64349,0z" id="path2" stroke-width="2px" stroke="#901a19" fill-rule="evenodd" fill="#901a19"/>
 </g>
 <g>
  <title>Layer 2</title>
 </g>
 <g>
  <title>background</title>
  <rect fill="none" id="canvas_background" height="482" width="482" y="-1" x="-1"/>
 </g>
</svg>